<svg width="100%" height="100%" viewBox="0 0 24 24" fill="currentColor" xmlns="http://www.w3.org/2000/svg">
<path d="M4.25 17.6346C4.0375 17.6346 3.85938 17.5627 3.71563 17.4189C3.57188 17.2751 3.5 17.0969 3.5 16.8843C3.5 16.6717 3.57188 16.4936 3.71563 16.35C3.85938 16.2064 4.0375 16.1346 4.25 16.1346H19.75C19.9625 16.1346 20.1406 16.2065 20.2843 16.3504C20.4281 16.4942 20.5 16.6724 20.5 16.885C20.5 17.0975 20.4281 17.2756 20.2843 17.4192C20.1406 17.5628 19.9625 17.6346 19.75 17.6346H4.25ZM4.25 12.75C4.0375 12.75 3.85938 12.6781 3.71563 12.5343C3.57188 12.3905 3.5 12.2123 3.5 11.9997C3.5 11.7871 3.57188 11.609 3.71563 11.4654C3.85938 11.3218 4.0375 11.25 4.25 11.25H19.75C19.9625 11.25 20.1406 11.3219 20.2843 11.4657C20.4281 11.6095 20.5 11.7877 20.5 12.0003C20.5 12.2129 20.4281 12.391 20.2843 12.5346C20.1406 12.6782 19.9625 12.75 19.75 12.75H4.25ZM4.25 7.86538C4.0375 7.86538 3.85938 7.79347 3.71563 7.64965C3.57188 7.50585 3.5 7.32765 3.5 7.11505C3.5 6.90247 3.57188 6.72438 3.71563 6.5808C3.85938 6.4372 4.0375 6.3654 4.25 6.3654H19.75C19.9625 6.3654 20.1406 6.43731 20.2843 6.58113C20.4281 6.72494 20.5 6.90314 20.5 7.11573C20.5 7.32833 20.4281 7.50642 20.2843 7.65C20.1406 7.79358 19.9625 7.86538 19.75 7.86538H4.25Z" fill="currentColor"/>
</svg>
