<svg width="100%" height="100%" viewBox="0 0 24 24" fill="currentColor" xmlns="http://www.w3.org/2000/svg">
<path d="M11 17.75C8.83716 17.75 7.00479 16.999 5.50287 15.4971C4.00096 13.9952 3.25 12.1628 3.25 10C3.25 7.83718 4.00096 6.00482 5.50287 4.5029C7.00479 3.00098 8.83716 2.25002 11 2.25002C13.1628 2.25002 14.9952 3.00098 16.4971 4.5029C17.999 6.00482 18.75 7.83718 18.75 10C18.75 10.959 18.5951 11.8414 18.2855 12.6471C17.9759 13.4529 17.5384 14.2103 16.973 14.9192L21.4154 19.3616C21.5602 19.5064 21.6311 19.6821 21.6279 19.8885C21.6247 20.0949 21.5538 20.2705 21.4154 20.4154C21.2705 20.5603 21.0933 20.6327 20.8836 20.6327C20.674 20.6327 20.4968 20.5603 20.3519 20.4154L15.9096 15.973C15.2006 16.5384 14.4448 16.9759 13.6423 17.2855C12.8397 17.5952 11.959 17.75 11 17.75ZM11 16.25C12.7307 16.25 14.2051 15.641 15.4231 14.4231C16.641 13.2051 17.25 11.7308 17.25 10C17.25 8.26923 16.641 6.79487 15.4231 5.5769C14.2051 4.35895 12.7307 3.74997 11 3.74997C9.26921 3.74997 7.79484 4.35895 6.57687 5.5769C5.35892 6.79487 4.74995 8.26923 4.74995 10C4.74995 11.7308 5.35892 13.2051 6.57687 14.4231C7.79484 15.641 9.26921 16.25 11 16.25Z" fill="currentColor"/>
</svg>
